<?xml version="1.0" encoding="UTF-8" standalone="no"?>
<!-- Created with Inkscape (http://www.inkscape.org/) -->

<svg
   width="512"
   height="512"
   viewBox="0 0 512 512"
   version="1.1"
   id="svg1"
   xmlns="http://www.w3.org/2000/svg"
   xmlns:svg="http://www.w3.org/2000/svg">
  <defs
     id="defs1" />
  <g
     id="layer1">
    <g
       id="g1"
       transform="matrix(4.805336,0,0,5.003799,-1423.6786,-861.72906)">
      <path
         d="m 324.80784,237.06402 a 31.08,31.08 0 0 1 -22,-36 c -0.28,0.76 -0.55,1.54 -0.78,2.34 a 31.1,31.1 0 0 0 59.82,17 c 0.23,-0.8 0.41,-1.61 0.57,-2.41 a 31.08,31.08 0 0 1 -37.61,19.07 z"
         style="fill:#263238"
         id="elppz3ubr0h28"
         class="animable" />
      <path
         d="m 340.13784,182.10402 a 31.1,31.1 0 0 1 22,36 c 0.28,-0.77 0.55,-1.55 0.77,-2.35 a 31.09,31.09 0 1 0 -59.81,-17 c -0.23,0.8 -0.41,1.6 -0.57,2.41 a 31.08,31.08 0 0 1 37.61,-19.06 z"
         style="fill:#455a64"
         id="elihivyckv1d"
         class="animable" />
      <path
         d="m 351.42784,233.28402 c 0.4,0.27 29.84,27.42 40.68,37.58 a 4.71,4.71 0 0 0 6.51,-0.06 v 0 a 4.71,4.71 0 0 0 -0.06,-6.84 l -40.41,-37.32 z"
         style="fill:#263238"
         id="el91mhpqm71t4"
         class="animable" />
    </g>
  </g>
</svg>
